<?xml version="1.0" encoding="UTF-8"?><svg xmlns="http://www.w3.org/2000/svg" xmlns:xlink="http://www.w3.org/1999/xlink" height="323pt" style="width:665px;height:323px;" version="1.1" viewBox="0 0 665 323" width="665pt">
    <defs>
        <filter height="300%" id="f1" width="300%" x="-1" y="-1">
            <feGaussianBlur result="blurOut" stdDeviation="2.0"/>
            <feColorMatrix in="blurOut" result="blurOut2" type="matrix" values="0 0 0 0 0 0 0 0 0 0 0 0 0 0 0 0 0 0 .4 0"/>
            <feOffset dx="4.0" dy="4.0" in="blurOut2" result="blurOut3"/>
            <feBlend in="SourceGraphic" in2="blurOut3" mode="normal"/>
        </filter>
    </defs>
    <g>
        <polygon fill="#FFFFFF" filter="url(#f1)" points="14,124,188,124,195,147.6094,585,147.6094,585,316,14,316,14,124" style="stroke: #000000; stroke-width: 2.0;"/>
        <line style="stroke: #000000; stroke-width: 2.0;" x1="14" x2="195" y1="147.6094" y2="147.6094"/>
        <text fill="#000000" font-family="sans-serif" font-size="14" font-weight="bold" lengthAdjust="spacingAndGlyphs" textLength="168" x="17" y="141.5332">de.mash1t.cryptography</text>
        <polygon fill="#FFFFFF" filter="url(#f1)" points="417,16,648,16,655,39.6094,658,39.6094,658,100,417,100,417,16" style="stroke: #000000; stroke-width: 2.0;"/>
        <line style="stroke: #000000; stroke-width: 2.0;" x1="417" x2="655" y1="39.6094" y2="39.6094"/>
        <text fill="#000000" font-family="sans-serif" font-size="14" font-weight="bold" lengthAdjust="spacingAndGlyphs" textLength="225" x="420" y="33.5332">de.mash1t.cryptography.method</text>
        <rect fill="#FEFECE" filter="url(#f1)" height="48" style="stroke: #A80036; stroke-width: 1.5;" width="105" x="471.5" y="152"/>
        <ellipse cx="486.5" cy="168" fill="#ADD1B2" rx="11" ry="11" style="stroke: #A80036; stroke-width: 1.0;"/>
        <path d="M489.2656,163.875 Q489.4219,163.6563 489.6094,163.5469 Q489.7969,163.4375 490.0156,163.4375 Q490.3906,163.4375 490.625,163.6953 Q490.8594,163.9531 490.8594,164.5625 L490.8594,166.0156 Q490.8594,166.625 490.625,166.8906 Q490.3906,167.1563 490.0156,167.1563 Q489.6719,167.1563 489.4688,166.9531 Q489.2656,166.7656 489.1563,166.25 Q489.1094,165.8906 488.9219,165.7031 Q488.5938,165.3281 487.9844,165.1094 Q487.375,164.8906 486.75,164.8906 Q485.9844,164.8906 485.3516,165.2188 Q484.7188,165.5469 484.2266,166.2969 Q483.7344,167.0469 483.7344,168.0781 L483.7344,169.1719 Q483.7344,170.4063 484.625,171.2266 Q485.5156,172.0469 487.1094,172.0469 Q488.0469,172.0469 488.7031,171.7969 Q489.0938,171.6406 489.5156,171.2031 Q489.7813,170.9375 489.9297,170.8594 Q490.0781,170.7813 490.2813,170.7813 Q490.6094,170.7813 490.8672,171.0391 Q491.125,171.2969 491.125,171.6406 Q491.125,171.9844 490.7813,172.3906 Q490.2813,172.9688 489.4844,173.2969 Q488.4063,173.75 487.1094,173.75 Q485.5938,173.75 484.3906,173.125 Q483.4063,172.625 482.7188,171.5547 Q482.0313,170.4844 482.0313,169.2031 L482.0313,168.0469 Q482.0313,166.7188 482.6484,165.5703 Q483.2656,164.4219 484.3594,163.8047 Q485.4531,163.1875 486.6875,163.1875 Q487.4219,163.1875 488.0703,163.3516 Q488.7188,163.5156 489.2656,163.875 Z "/>
        <text fill="#000000" font-family="sans-serif" font-size="12" lengthAdjust="spacingAndGlyphs" textLength="73" x="500.5" y="172.9102">CryptoBasics</text>
        <line style="stroke: #A80036; stroke-width: 1.5;" x1="472.5" x2="575.5" y1="184" y2="184"/>
        <line style="stroke: #A80036; stroke-width: 1.5;" x1="472.5" x2="575.5" y1="192" y2="192"/>
        <rect fill="#FEFECE" filter="url(#f1)" height="48" style="stroke: #A80036; stroke-width: 1.5;" width="129" x="307.5" y="152"/>
        <ellipse cx="322.5" cy="168" fill="#ADD1B2" rx="11" ry="11" style="stroke: #A80036; stroke-width: 1.0;"/>
        <path d="M325.2656,163.875 Q325.4219,163.6563 325.6094,163.5469 Q325.7969,163.4375 326.0156,163.4375 Q326.3906,163.4375 326.625,163.6953 Q326.8594,163.9531 326.8594,164.5625 L326.8594,166.0156 Q326.8594,166.625 326.625,166.8906 Q326.3906,167.1563 326.0156,167.1563 Q325.6719,167.1563 325.4688,166.9531 Q325.2656,166.7656 325.1563,166.25 Q325.1094,165.8906 324.9219,165.7031 Q324.5938,165.3281 323.9844,165.1094 Q323.375,164.8906 322.75,164.8906 Q321.9844,164.8906 321.3516,165.2188 Q320.7188,165.5469 320.2266,166.2969 Q319.7344,167.0469 319.7344,168.0781 L319.7344,169.1719 Q319.7344,170.4063 320.625,171.2266 Q321.5156,172.0469 323.1094,172.0469 Q324.0469,172.0469 324.7031,171.7969 Q325.0938,171.6406 325.5156,171.2031 Q325.7813,170.9375 325.9297,170.8594 Q326.0781,170.7813 326.2813,170.7813 Q326.6094,170.7813 326.8672,171.0391 Q327.125,171.2969 327.125,171.6406 Q327.125,171.9844 326.7813,172.3906 Q326.2813,172.9688 325.4844,173.2969 Q324.4063,173.75 323.1094,173.75 Q321.5938,173.75 320.3906,173.125 Q319.4063,172.625 318.7188,171.5547 Q318.0313,170.4844 318.0313,169.2031 L318.0313,168.0469 Q318.0313,166.7188 318.6484,165.5703 Q319.2656,164.4219 320.3594,163.8047 Q321.4531,163.1875 322.6875,163.1875 Q323.4219,163.1875 324.0703,163.3516 Q324.7188,163.5156 325.2656,163.875 Z "/>
        <text fill="#000000" font-family="sans-serif" font-size="12" lengthAdjust="spacingAndGlyphs" textLength="97" x="336.5" y="172.9102">EncryptionMethod</text>
        <line style="stroke: #A80036; stroke-width: 1.5;" x1="308.5" x2="435.5" y1="184" y2="184"/>
        <line style="stroke: #A80036; stroke-width: 1.5;" x1="308.5" x2="435.5" y1="192" y2="192"/>
        <rect fill="#FEFECE" filter="url(#f1)" height="48" style="stroke: #A80036; stroke-width: 1.5;" width="143" x="129.5" y="152"/>
        <ellipse cx="144.5" cy="168" fill="#ADD1B2" rx="11" ry="11" style="stroke: #A80036; stroke-width: 1.0;"/>
        <path d="M147.2656,163.875 Q147.4219,163.6563 147.6094,163.5469 Q147.7969,163.4375 148.0156,163.4375 Q148.3906,163.4375 148.625,163.6953 Q148.8594,163.9531 148.8594,164.5625 L148.8594,166.0156 Q148.8594,166.625 148.625,166.8906 Q148.3906,167.1563 148.0156,167.1563 Q147.6719,167.1563 147.4688,166.9531 Q147.2656,166.7656 147.1563,166.25 Q147.1094,165.8906 146.9219,165.7031 Q146.5938,165.3281 145.9844,165.1094 Q145.375,164.8906 144.75,164.8906 Q143.9844,164.8906 143.3516,165.2188 Q142.7188,165.5469 142.2266,166.2969 Q141.7344,167.0469 141.7344,168.0781 L141.7344,169.1719 Q141.7344,170.4063 142.625,171.2266 Q143.5156,172.0469 145.1094,172.0469 Q146.0469,172.0469 146.7031,171.7969 Q147.0938,171.6406 147.5156,171.2031 Q147.7813,170.9375 147.9297,170.8594 Q148.0781,170.7813 148.2813,170.7813 Q148.6094,170.7813 148.8672,171.0391 Q149.125,171.2969 149.125,171.6406 Q149.125,171.9844 148.7813,172.3906 Q148.2813,172.9688 147.4844,173.2969 Q146.4063,173.75 145.1094,173.75 Q143.5938,173.75 142.3906,173.125 Q141.4063,172.625 140.7188,171.5547 Q140.0313,170.4844 140.0313,169.2031 L140.0313,168.0469 Q140.0313,166.7188 140.6484,165.5703 Q141.2656,164.4219 142.3594,163.8047 Q143.4531,163.1875 144.6875,163.1875 Q145.4219,163.1875 146.0703,163.3516 Q146.7188,163.5156 147.2656,163.875 Z "/>
        <text fill="#000000" font-family="sans-serif" font-size="12" lengthAdjust="spacingAndGlyphs" textLength="111" x="158.5" y="172.9102">SessionIdGenerator</text>
        <line style="stroke: #A80036; stroke-width: 1.5;" x1="130.5" x2="271.5" y1="184" y2="184"/>
        <line style="stroke: #A80036; stroke-width: 1.5;" x1="130.5" x2="271.5" y1="192" y2="192"/>
        <rect fill="#FEFECE" filter="url(#f1)" height="48" style="stroke: #A80036; stroke-width: 1.5;" width="72" x="22" y="152"/>
        <ellipse cx="37" cy="168" fill="#EB937F" rx="11" ry="11" style="stroke: #A80036; stroke-width: 1.0;"/>
        <path d="M35.8594,168.7969 L35.8594,171.2969 L40.1875,171.2969 L40.1875,170.375 Q40.1875,169.7656 40.4297,169.5 Q40.6719,169.2344 41.0469,169.2344 Q41.4219,169.2344 41.6563,169.5 Q41.8906,169.7656 41.8906,170.375 L41.8906,173 L33.8906,173 Q33.2656,173 33.0078,172.7656 Q32.75,172.5313 32.75,172.1406 Q32.75,171.7656 33.0156,171.5313 Q33.2813,171.2969 33.8906,171.2969 L34.1563,171.2969 L34.1563,164.6406 L33.8906,164.6406 Q33.2656,164.6406 33.0078,164.4063 Q32.75,164.1719 32.75,163.7813 Q32.75,163.4063 33.0078,163.1719 Q33.2656,162.9375 33.8906,162.9375 L41.5156,162.9375 L41.5156,165.5313 Q41.5156,166.1406 41.2891,166.3984 Q41.0625,166.6563 40.6719,166.6563 Q40.2969,166.6563 40.0625,166.3984 Q39.8281,166.1406 39.8281,165.5313 L39.8281,164.6406 L35.8594,164.6406 L35.8594,167.0938 L37.3438,167.0938 Q37.3438,166.4375 37.4688,166.25 Q37.7344,165.8438 38.2031,165.8438 Q38.5781,165.8438 38.8125,166.1016 Q39.0469,166.3594 39.0469,166.9688 L39.0469,168.9375 Q39.0469,169.4844 38.9219,169.6719 Q38.6563,170.0625 38.2031,170.0625 Q37.7344,170.0625 37.4688,169.6563 Q37.3438,169.4688 37.3438,168.7969 L35.8594,168.7969 Z "/>
        <text fill="#000000" font-family="sans-serif" font-size="12" lengthAdjust="spacingAndGlyphs" textLength="40" x="51" y="172.9102">Method</text>
        <line style="stroke: #A80036; stroke-width: 1.5;" x1="23" x2="93" y1="184" y2="184"/>
        <line style="stroke: #A80036; stroke-width: 1.5;" x1="23" x2="93" y1="192" y2="192"/>
        <rect fill="#FEFECE" filter="url(#f1)" height="48" style="stroke: #A80036; stroke-width: 1.5;" width="69" x="422.5" y="260"/>
        <ellipse cx="437.5" cy="276" fill="#B4A7E5" rx="11" ry="11" style="stroke: #A80036; stroke-width: 1.0;"/>
        <path d="M438.4531,272.6406 L438.4531,279.2969 L440.1719,279.2969 Q440.7813,279.2969 441.0469,279.5313 Q441.3125,279.7656 441.3125,280.1563 Q441.3125,280.5313 441.0469,280.7656 Q440.7813,281 440.1719,281 L435.0313,281 Q434.4219,281 434.1563,280.7656 Q433.8906,280.5313 433.8906,280.1406 Q433.8906,279.7656 434.1563,279.5313 Q434.4219,279.2969 435.0313,279.2969 L436.75,279.2969 L436.75,272.6406 L435.0313,272.6406 Q434.4219,272.6406 434.1563,272.4063 Q433.8906,272.1719 433.8906,271.7813 Q433.8906,271.4063 434.1563,271.1719 Q434.4219,270.9375 435.0313,270.9375 L440.1719,270.9375 Q440.7813,270.9375 441.0469,271.1719 Q441.3125,271.4063 441.3125,271.7813 Q441.3125,272.1719 441.0469,272.4063 Q440.7813,272.6406 440.1719,272.6406 L438.4531,272.6406 Z "/>
        <text fill="#000000" font-family="sans-serif" font-size="12" font-style="italic" lengthAdjust="spacingAndGlyphs" textLength="37" x="451.5" y="280.9102">crypter</text>
        <line style="stroke: #A80036; stroke-width: 1.5;" x1="423.5" x2="490.5" y1="292" y2="292"/>
        <line style="stroke: #A80036; stroke-width: 1.5;" x1="423.5" x2="490.5" y1="300" y2="300"/>
        <rect fill="#FEFECE" filter="url(#f1)" height="48" style="stroke: #A80036; stroke-width: 1.5;" width="53" x="497.5" y="44"/>
        <ellipse cx="512.5" cy="60" fill="#ADD1B2" rx="11" ry="11" style="stroke: #A80036; stroke-width: 1.0;"/>
        <path d="M515.2656,55.875 Q515.4219,55.6563 515.6094,55.5469 Q515.7969,55.4375 516.0156,55.4375 Q516.3906,55.4375 516.625,55.6953 Q516.8594,55.9531 516.8594,56.5625 L516.8594,58.0156 Q516.8594,58.625 516.625,58.8906 Q516.3906,59.1563 516.0156,59.1563 Q515.6719,59.1563 515.4688,58.9531 Q515.2656,58.7656 515.1563,58.25 Q515.1094,57.8906 514.9219,57.7031 Q514.5938,57.3281 513.9844,57.1094 Q513.375,56.8906 512.75,56.8906 Q511.9844,56.8906 511.3516,57.2188 Q510.7188,57.5469 510.2266,58.2969 Q509.7344,59.0469 509.7344,60.0781 L509.7344,61.1719 Q509.7344,62.4063 510.625,63.2266 Q511.5156,64.0469 513.1094,64.0469 Q514.0469,64.0469 514.7031,63.7969 Q515.0938,63.6406 515.5156,63.2031 Q515.7813,62.9375 515.9297,62.8594 Q516.0781,62.7813 516.2813,62.7813 Q516.6094,62.7813 516.8672,63.0391 Q517.125,63.2969 517.125,63.6406 Q517.125,63.9844 516.7813,64.3906 Q516.2813,64.9688 515.4844,65.2969 Q514.4063,65.75 513.1094,65.75 Q511.5938,65.75 510.3906,65.125 Q509.4063,64.625 508.7188,63.5547 Q508.0313,62.4844 508.0313,61.2031 L508.0313,60.0469 Q508.0313,58.7188 508.6484,57.5703 Q509.2656,56.4219 510.3594,55.8047 Q511.4531,55.1875 512.6875,55.1875 Q513.4219,55.1875 514.0703,55.3516 Q514.7188,55.5156 515.2656,55.875 Z "/>
        <text fill="#000000" font-family="sans-serif" font-size="12" lengthAdjust="spacingAndGlyphs" textLength="21" x="526.5" y="64.9102">Aes</text>
        <line style="stroke: #A80036; stroke-width: 1.5;" x1="498.5" x2="549.5" y1="76" y2="76"/>
        <line style="stroke: #A80036; stroke-width: 1.5;" x1="498.5" x2="549.5" y1="84" y2="84"/>
        <path d="M535.408,151.678 C537.951,135.604 538.176,114.154 536.081,97.131 " fill="none" style="stroke: #A80036; stroke-width: 1.0; stroke-dasharray: 7.0,7.0;"/>
        <polygon fill="#A80036" points="535.357,92,532.6535,101.4705,536.0555,96.951,540.5751,100.3529,535.357,92" style="stroke: #A80036; stroke-width: 1.0;"/>
        <path d="M513.274,92 C510.843,108.003 510.602,129.446 512.551,146.528 " fill="none" style="stroke: #A80036; stroke-width: 1.0; stroke-dasharray: 7.0,7.0;"/>
        <polygon fill="#A80036" points="513.226,151.678,516.022,142.2343,512.5759,146.7204,508.0899,143.2744,513.226,151.678" style="stroke: #A80036; stroke-width: 1.0;"/>
        <path d="M390.444,200 C400.732,212.83 413.824,229.1566 425.67,243.9292 " fill="none" style="stroke: #A80036; stroke-width: 1.0;"/>
        <polygon fill="none" points="431.248,239.6962,438.299,259.6784,420.326,248.4546,431.248,239.6962" style="stroke: #A80036; stroke-width: 1.0;"/>
        <path d="M497.175,87.707 C476.332,102.242 446.841,122.808 421.719,140.328 " fill="none" style="stroke: #A80036; stroke-width: 1.0;"/>
        <polygon fill="none" points="425.594,146.16,405.185,151.858,417.585,134.676,425.594,146.16" style="stroke: #A80036; stroke-width: 1.0;"/>
        <path d="M550.727,82.086 C566.472,91.389 585.014,105.512 594,124 C608.766,154.38 610.579,170.571 594,200 C576.197,231.6016 540.972,252.547 510.699,265.4915 " fill="none" style="stroke: #A80036; stroke-width: 1.0;"/>
        <polygon fill="none" points="512.931,272.1346,491.754,272.874,507.848,259.09,512.931,272.1346" style="stroke: #A80036; stroke-width: 1.0;"/>
    </g>
</svg>
